<svg width="39" height="39" viewBox="0 0 39 39" fill="none" xmlns="http://www.w3.org/2000/svg">
<path d="M39 19.5C39 30.2696 30.2696 39 19.5 39C8.73045 39 0 30.2696 0 19.5C0 8.73045 8.73045 0 19.5 0C30.2696 0 39 8.73045 39 19.5ZM3.24267 19.5C3.24267 28.4787 10.5213 35.7573 19.5 35.7573C28.4787 35.7573 35.7573 28.4787 35.7573 19.5C35.7573 10.5213 28.4787 3.24267 19.5 3.24267C10.5213 3.24267 3.24267 10.5213 3.24267 19.5Z" fill="#FD544F"/>
<path d="M13.2578 24.3711C13.2578 24.4759 13.2396 24.5693 13.2031 24.6514C13.1667 24.7334 13.1165 24.8018 13.0527 24.8564C12.9935 24.9111 12.9206 24.9521 12.834 24.9795C12.752 25.0023 12.6676 25.0137 12.5811 25.0137H11.8154C11.6559 25.0137 11.5169 24.9977 11.3984 24.9658C11.2845 24.9339 11.1774 24.877 11.0771 24.7949C10.9814 24.7083 10.888 24.5944 10.7969 24.4531C10.7057 24.3073 10.6032 24.1204 10.4893 23.8926L8.28809 19.7568C8.16048 19.5107 8.0306 19.2464 7.89844 18.9639C7.76628 18.6768 7.64779 18.3988 7.54297 18.1299H7.5293C7.54753 18.458 7.5612 18.7861 7.57031 19.1143C7.57943 19.4378 7.58398 19.7728 7.58398 20.1191V24.7471C7.58398 24.7926 7.57031 24.8337 7.54297 24.8701C7.52018 24.9066 7.47689 24.9385 7.41309 24.9658C7.35384 24.9886 7.27181 25.0068 7.16699 25.0205C7.06217 25.0342 6.92773 25.041 6.76367 25.041C6.60417 25.041 6.47201 25.0342 6.36719 25.0205C6.26237 25.0068 6.18034 24.9886 6.12109 24.9658C6.06185 24.9385 6.02083 24.9066 5.99805 24.8701C5.97526 24.8337 5.96387 24.7926 5.96387 24.7471V16.7969C5.96387 16.5827 6.02539 16.4232 6.14844 16.3184C6.27604 16.209 6.43099 16.1543 6.61328 16.1543H7.57715C7.75033 16.1543 7.89616 16.1702 8.01465 16.2021C8.13314 16.2295 8.23796 16.2773 8.3291 16.3457C8.4248 16.4141 8.51367 16.5098 8.5957 16.6328C8.67773 16.7513 8.76204 16.8994 8.84863 17.0771L10.5713 20.3105C10.6715 20.5065 10.7695 20.7002 10.8652 20.8916C10.9655 21.0785 11.0612 21.2676 11.1523 21.459C11.2435 21.6458 11.3324 21.8304 11.4189 22.0127C11.5055 22.195 11.5898 22.3773 11.6719 22.5596H11.6787C11.665 22.2406 11.6536 21.9079 11.6445 21.5615C11.64 21.2152 11.6377 20.8848 11.6377 20.5703V16.4209C11.6377 16.3753 11.6514 16.3343 11.6787 16.2979C11.7061 16.2614 11.7516 16.2295 11.8154 16.2021C11.8792 16.1748 11.9635 16.1566 12.0684 16.1475C12.1732 16.1338 12.3076 16.127 12.4717 16.127C12.6266 16.127 12.7565 16.1338 12.8613 16.1475C12.9661 16.1566 13.0459 16.1748 13.1006 16.2021C13.1598 16.2295 13.2008 16.2614 13.2236 16.2979C13.2464 16.3343 13.2578 16.3753 13.2578 16.4209V24.3711ZM20.4355 24.2959C20.4355 24.4281 20.4287 24.5397 20.415 24.6309C20.4059 24.7174 20.39 24.7881 20.3672 24.8428C20.3444 24.8975 20.3148 24.9385 20.2783 24.9658C20.2464 24.9886 20.21 25 20.1689 25H15.7256C15.5752 25 15.4476 24.9567 15.3428 24.8701C15.2425 24.779 15.1924 24.6331 15.1924 24.4326V16.7217C15.1924 16.5212 15.2425 16.3776 15.3428 16.291C15.4476 16.1999 15.5752 16.1543 15.7256 16.1543H20.1416C20.1826 16.1543 20.2191 16.1657 20.251 16.1885C20.2829 16.2113 20.3102 16.2523 20.333 16.3115C20.3558 16.3662 20.3717 16.4391 20.3809 16.5303C20.3945 16.6169 20.4014 16.7285 20.4014 16.8652C20.4014 16.9928 20.3945 17.1022 20.3809 17.1934C20.3717 17.2799 20.3558 17.3506 20.333 17.4053C20.3102 17.46 20.2829 17.501 20.251 17.5283C20.2191 17.5511 20.1826 17.5625 20.1416 17.5625H16.9834V19.7227H19.6562C19.6973 19.7227 19.7337 19.7363 19.7656 19.7637C19.8021 19.7865 19.8317 19.8252 19.8545 19.8799C19.8773 19.93 19.8932 20.0007 19.9023 20.0918C19.916 20.1784 19.9229 20.2855 19.9229 20.4131C19.9229 20.5452 19.916 20.6546 19.9023 20.7412C19.8932 20.8278 19.8773 20.8984 19.8545 20.9531C19.8317 21.0033 19.8021 21.0397 19.7656 21.0625C19.7337 21.0853 19.6973 21.0967 19.6562 21.0967H16.9834V23.5918H20.1689C20.21 23.5918 20.2464 23.6055 20.2783 23.6328C20.3148 23.6556 20.3444 23.6943 20.3672 23.749C20.39 23.8037 20.4059 23.8766 20.415 23.9678C20.4287 24.0544 20.4355 24.1637 20.4355 24.2959ZM31.3389 24.542C31.3115 24.6514 31.2728 24.7402 31.2227 24.8086C31.1771 24.8724 31.1064 24.9225 31.0107 24.959C30.915 24.9909 30.792 25.0114 30.6416 25.0205C30.4912 25.0342 30.2998 25.041 30.0674 25.041C29.8076 25.041 29.598 25.0342 29.4385 25.0205C29.2835 25.0114 29.1605 24.9909 29.0693 24.959C28.9782 24.9225 28.9121 24.8724 28.8711 24.8086C28.8301 24.7402 28.7982 24.6514 28.7754 24.542L27.3604 18.9365H27.3467L26.0068 24.542C25.984 24.6468 25.9521 24.7334 25.9111 24.8018C25.8701 24.8656 25.804 24.9157 25.7129 24.9521C25.6263 24.9886 25.5055 25.0114 25.3506 25.0205C25.2002 25.0342 24.9997 25.041 24.749 25.041C24.4847 25.041 24.2728 25.0342 24.1133 25.0205C23.9583 25.0114 23.8353 24.9909 23.7441 24.959C23.653 24.9225 23.5869 24.8724 23.5459 24.8086C23.5049 24.7402 23.4707 24.6514 23.4434 24.542L21.4336 16.8242C21.3926 16.6602 21.3698 16.5326 21.3652 16.4414C21.3607 16.3457 21.3857 16.2728 21.4404 16.2227C21.4997 16.1725 21.5931 16.1429 21.7207 16.1338C21.8529 16.1201 22.0352 16.1133 22.2676 16.1133C22.4818 16.1133 22.6504 16.1178 22.7734 16.127C22.901 16.1315 22.9967 16.1475 23.0605 16.1748C23.1243 16.1976 23.1676 16.234 23.1904 16.2842C23.2132 16.3298 23.2314 16.3958 23.2451 16.4824L24.7969 23.2568H24.8037L26.417 16.5303C26.4352 16.4437 26.458 16.373 26.4854 16.3184C26.5173 16.2637 26.5674 16.2227 26.6357 16.1953C26.7087 16.1634 26.8066 16.1429 26.9297 16.1338C27.0527 16.1201 27.2168 16.1133 27.4219 16.1133C27.6406 16.1133 27.8138 16.1178 27.9414 16.127C28.0736 16.1361 28.1738 16.1566 28.2422 16.1885C28.3151 16.2158 28.3675 16.2568 28.3994 16.3115C28.4313 16.3662 28.4564 16.4391 28.4746 16.5303L30.1426 23.2568H30.1562L31.708 16.5029C31.7217 16.43 31.7399 16.3685 31.7627 16.3184C31.7855 16.2637 31.8288 16.2227 31.8926 16.1953C31.9564 16.1634 32.0475 16.1429 32.166 16.1338C32.2845 16.1201 32.4508 16.1133 32.665 16.1133C32.8656 16.1133 33.0205 16.1201 33.1299 16.1338C33.2438 16.1429 33.3258 16.1725 33.376 16.2227C33.4261 16.2728 33.4466 16.348 33.4375 16.4482C33.4329 16.5439 33.4102 16.6761 33.3691 16.8447L31.3389 24.542Z" fill="#F9544C"/>
</svg>
